<svg xmlns="http://www.w3.org/2000/svg" xmlns:xlink="http://www.w3.org/1999/xlink" width="500" zoomAndPan="magnify" viewBox="0 0 375 374.999991" height="500" preserveAspectRatio="xMidYMid meet" version="1.0"><defs><clipPath id="2dd798638a"><path d="M 37.5 0 L 333 0 L 333 375 L 37.5 375 Z M 37.5 0 " clip-rule="nonzero"/></clipPath><clipPath id="d442a1417b"><path d="M 181 265 L 281 265 L 281 369 L 181 369 Z M 181 265 " clip-rule="nonzero"/></clipPath><clipPath id="2fcea48e3c"><path d="M 82.136719 273.25 L 230.855469 184.375 L 302.800781 304.765625 L 154.082031 393.640625 Z M 82.136719 273.25 " clip-rule="nonzero"/></clipPath><clipPath id="0416d14255"><path d="M 82.136719 273.25 L 230.855469 184.375 L 302.800781 304.765625 L 154.082031 393.640625 Z M 82.136719 273.25 " clip-rule="nonzero"/></clipPath><clipPath id="674727f101"><path d="M 130 224 L 187 224 L 187 375 L 130 375 Z M 130 224 " clip-rule="nonzero"/></clipPath><clipPath id="e45569e47d"><path d="M 82.136719 273.25 L 230.855469 184.375 L 302.800781 304.765625 L 154.082031 393.640625 Z M 82.136719 273.25 " clip-rule="nonzero"/></clipPath><clipPath id="d64fecfd12"><path d="M 82.136719 273.25 L 230.855469 184.375 L 302.800781 304.765625 L 154.082031 393.640625 Z M 82.136719 273.25 " clip-rule="nonzero"/></clipPath></defs><rect x="-37.5" width="450" fill="#ffffff" y="-37.499999" height="449.999989" fill-opacity="1"/><rect x="-37.5" width="450" fill="#ffffff" y="-37.499999" height="449.999989" fill-opacity="1"/><g clip-path="url(#2dd798638a)"><path fill="#ffa726" d="M 185.390625 266.8125 C 119.683594 266.8125 66.429688 213.554688 66.429688 147.847656 C 66.429688 82.164062 119.683594 28.90625 185.390625 28.90625 C 251.074219 28.90625 304.328125 82.164062 304.328125 147.847656 C 304.328125 213.554688 251.074219 266.8125 185.390625 266.8125 Z M 185.390625 0.0117188 C 103.730469 0.0117188 37.53125 66.191406 37.53125 147.847656 C 37.53125 278.859375 185.390625 375.011719 185.390625 375.011719 C 185.390625 375.011719 333.230469 278.859375 333.230469 147.847656 C 333.230469 66.191406 267.027344 0.0117188 185.390625 0.0117188 " fill-opacity="1" fill-rule="nonzero"/></g><path fill="#ffa726" d="M 235.789062 169.199219 C 230.859375 169.199219 220.628906 169.199219 220.628906 160.894531 C 220.628906 153.796875 228.695312 145.710938 235.789062 145.710938 C 242.886719 145.710938 248.675781 151.496094 248.675781 158.59375 C 248.675781 165.132812 243.738281 169.199219 235.789062 169.199219 Z M 210.835938 179.386719 C 210.835938 180.199219 210.179688 180.871094 209.351562 180.871094 L 161.40625 180.871094 C 160.59375 180.871094 159.921875 180.199219 159.921875 179.386719 L 159.921875 167.59375 C 159.921875 166.78125 160.59375 166.128906 161.40625 166.128906 L 209.351562 166.128906 C 210.179688 166.128906 210.835938 166.78125 210.835938 167.59375 Z M 134.984375 169.199219 C 127.035156 169.199219 122.101562 165.132812 122.101562 158.59375 C 122.101562 151.496094 127.871094 145.710938 134.984375 145.710938 C 142.058594 145.710938 150.148438 153.796875 150.148438 160.894531 C 150.148438 169.199219 139.898438 169.199219 134.984375 169.199219 Z M 145.113281 111.300781 C 146.996094 106.804688 152.726562 103.015625 157.601562 103.015625 L 213.175781 103.015625 C 218.050781 103.015625 223.761719 106.804688 225.664062 111.300781 L 233.335938 129.617188 C 221.203125 126.71875 205.210938 125.253906 185.386719 125.253906 C 165.546875 125.253906 149.574219 126.71875 137.421875 129.617188 Z M 261.734375 153.558594 C 261.734375 144.839844 256.207031 138.140625 245.226562 133.421875 L 253.351562 132.609375 C 254.183594 132.53125 254.9375 132.132812 255.472656 131.5 C 256.007812 130.84375 256.265625 130.03125 256.183594 129.199219 L 255.75 124.679688 C 255.59375 122.996094 254.144531 121.726562 252.421875 121.847656 L 235.332031 121.667969 L 230.203125 109.398438 C 227.523438 103.054688 220.054688 98.082031 213.175781 98.082031 L 157.601562 98.082031 C 150.703125 98.082031 143.230469 103.054688 140.574219 109.398438 L 135.421875 121.667969 L 118.335938 121.847656 C 116.613281 121.726562 115.164062 122.996094 115.007812 124.679688 L 114.589844 129.199219 C 114.511719 130.03125 114.746094 130.84375 115.285156 131.5 C 115.820312 132.132812 116.570312 132.53125 117.40625 132.609375 L 125.53125 133.421875 C 114.550781 138.140625 109.019531 144.839844 109.019531 153.558594 L 109.019531 155.066406 C 109 162.894531 108.960938 170.964844 115.285156 177.304688 C 115.996094 178.019531 116.808594 178.710938 117.683594 179.367188 L 117.683594 194.804688 C 117.683594 197.320312 119.742188 199.382812 122.261719 199.382812 L 143.152344 199.382812 C 145.667969 199.382812 147.710938 197.320312 147.710938 194.804688 L 147.710938 188.679688 C 157.878906 189.949219 170.324219 190.542969 185.386719 190.542969 C 200.433594 190.542969 212.898438 189.949219 223.046875 188.679688 L 223.046875 194.804688 C 223.046875 197.320312 225.089844 199.382812 227.605469 199.382812 L 248.515625 199.382812 C 251.03125 199.382812 253.074219 197.320312 253.074219 194.804688 L 253.074219 179.367188 C 253.945312 178.710938 254.757812 178.019531 255.472656 177.304688 C 261.796875 170.964844 261.777344 162.894531 261.734375 155.066406 L 261.734375 153.558594 " fill-opacity="1" fill-rule="nonzero"/><g clip-path="url(#d442a1417b)"><g clip-path="url(#2fcea48e3c)"><g clip-path="url(#0416d14255)"><path fill="#5e6018" d="M 280.074219 266.113281 C 187.917969 257.207031 184.199219 329.417969 184.199219 329.417969 C 184.199219 329.417969 208.75 292.285156 243.304688 287.945312 C 243.304688 287.945312 210.382812 299.957031 190.128906 331.027344 C 190.128906 331.027344 178.355469 349.542969 182.375 368.917969 C 182.375 368.917969 182.179688 349.492188 196.429688 332.09375 C 217.28125 334.695312 259.464844 331.042969 280.074219 266.113281 " fill-opacity="1" fill-rule="nonzero"/></g></g></g><g clip-path="url(#674727f101)"><g clip-path="url(#e45569e47d)"><g clip-path="url(#d64fecfd12)"><path fill="#c3c64c" d="M 164.0625 224.28125 C 95.71875 295.960938 154.039062 346.773438 154.039062 346.773438 C 154.039062 346.773438 138.996094 301.59375 158.15625 269.640625 C 158.15625 269.640625 146.53125 305.28125 159.308594 342.847656 C 159.308594 342.847656 167.117188 364.980469 186.082031 374.394531 C 186.082031 374.394531 169.601562 361.726562 164.363281 338.246094 C 180.324219 322.414062 205.105469 284.496094 164.0625 224.28125 " fill-opacity="1" fill-rule="nonzero"/></g></g></g></svg>