<svg xmlns="http://www.w3.org/2000/svg" xmlns:xlink="http://www.w3.org/1999/xlink" width="200" zoomAndPan="magnify" viewBox="0 0 150 37.5" height="50" preserveAspectRatio="xMidYMid meet" version="1.0"><defs><g/><clipPath id="86b949fd39"><path d="M 120.296875 0.300781 L 149.011719 0.300781 L 149.011719 36.515625 L 120.296875 36.515625 Z M 120.296875 0.300781 " clip-rule="nonzero"/></clipPath></defs><g clip-path="url(#86b949fd39)"><path fill="#008080" d="M 134.652344 26.199219 C 128.277344 26.199219 123.105469 21.03125 123.105469 14.652344 C 123.105469 8.277344 128.277344 3.105469 134.652344 3.105469 C 141.03125 3.105469 146.199219 8.277344 146.199219 14.652344 C 146.199219 21.03125 141.03125 26.199219 134.652344 26.199219 Z M 134.652344 0.300781 C 126.726562 0.300781 120.300781 6.726562 120.300781 14.652344 C 120.300781 27.371094 134.652344 36.703125 134.652344 36.703125 C 134.652344 36.703125 149.007812 27.371094 149.007812 14.652344 C 149.007812 6.726562 142.578125 0.300781 134.652344 0.300781 " fill-opacity="1" fill-rule="nonzero"/></g><path fill="#008080" d="M 139.546875 16.726562 C 139.066406 16.726562 138.074219 16.726562 138.074219 15.917969 C 138.074219 15.230469 138.859375 14.445312 139.546875 14.445312 C 140.234375 14.445312 140.796875 15.007812 140.796875 15.695312 C 140.796875 16.332031 140.320312 16.726562 139.546875 16.726562 Z M 137.125 17.714844 C 137.125 17.792969 137.0625 17.859375 136.980469 17.859375 L 132.324219 17.859375 C 132.246094 17.859375 132.183594 17.792969 132.183594 17.714844 L 132.183594 16.570312 C 132.183594 16.492188 132.246094 16.425781 132.324219 16.425781 L 136.980469 16.425781 C 137.0625 16.425781 137.125 16.492188 137.125 16.570312 Z M 129.761719 16.726562 C 128.988281 16.726562 128.511719 16.332031 128.511719 15.695312 C 128.511719 15.007812 129.070312 14.445312 129.761719 14.445312 C 130.449219 14.445312 131.234375 15.230469 131.234375 15.917969 C 131.234375 16.726562 130.238281 16.726562 129.761719 16.726562 Z M 130.746094 11.105469 C 130.925781 10.667969 131.484375 10.300781 131.957031 10.300781 L 137.351562 10.300781 C 137.824219 10.300781 138.378906 10.667969 138.5625 11.105469 L 139.308594 12.882812 C 138.132812 12.601562 136.578125 12.460938 134.652344 12.460938 C 132.726562 12.460938 131.175781 12.601562 129.996094 12.882812 Z M 142.066406 15.207031 C 142.066406 14.359375 141.527344 13.710938 140.464844 13.253906 L 141.25 13.171875 C 141.332031 13.164062 141.40625 13.125 141.457031 13.066406 C 141.511719 13 141.535156 12.921875 141.527344 12.84375 L 141.484375 12.402344 C 141.46875 12.238281 141.328125 12.117188 141.160156 12.128906 L 139.503906 12.109375 L 139.003906 10.921875 C 138.746094 10.304688 138.019531 9.820312 137.351562 9.820312 L 131.957031 9.820312 C 131.285156 9.820312 130.5625 10.304688 130.304688 10.921875 L 129.804688 12.109375 L 128.144531 12.128906 C 127.976562 12.117188 127.835938 12.238281 127.820312 12.402344 L 127.78125 12.84375 C 127.773438 12.921875 127.796875 13 127.847656 13.066406 C 127.902344 13.125 127.972656 13.164062 128.054688 13.171875 L 128.84375 13.253906 C 127.777344 13.710938 127.242188 14.359375 127.242188 15.207031 L 127.242188 15.351562 C 127.238281 16.113281 127.234375 16.898438 127.847656 17.511719 C 127.917969 17.582031 127.996094 17.648438 128.082031 17.710938 L 128.082031 19.210938 C 128.082031 19.457031 128.28125 19.65625 128.527344 19.65625 L 130.554688 19.65625 C 130.796875 19.65625 130.996094 19.457031 130.996094 19.210938 L 130.996094 18.617188 C 131.984375 18.738281 133.191406 18.796875 134.652344 18.796875 C 136.113281 18.796875 137.324219 18.738281 138.308594 18.617188 L 138.308594 19.210938 C 138.308594 19.457031 138.507812 19.65625 138.753906 19.65625 L 140.78125 19.65625 C 141.027344 19.65625 141.226562 19.457031 141.226562 19.210938 L 141.226562 17.710938 C 141.308594 17.648438 141.386719 17.582031 141.457031 17.511719 C 142.070312 16.898438 142.070312 16.113281 142.066406 15.351562 L 142.066406 15.207031 " fill-opacity="1" fill-rule="nonzero"/><g fill="#008080" fill-opacity="1"><g transform="translate(0.986842, 30.000305)"><g><path d="M 2.84375 0 L 2.84375 -21.390625 L 15.90625 -21.390625 L 15.90625 -19.125 L 5.421875 -19.125 L 5.421875 -11.953125 L 15.296875 -11.953125 L 15.296875 -9.6875 L 5.421875 -9.6875 L 5.421875 -2.265625 L 15.90625 -2.265625 L 15.90625 0 Z M 2.84375 0 "/></g></g></g><g fill="#008080" fill-opacity="1"><g transform="translate(18.859089, 30.000305)"><g><path d="M 8.484375 0.375 C 7.390625 0.375 6.398438 0.179688 5.515625 -0.203125 C 4.640625 -0.597656 3.898438 -1.148438 3.296875 -1.859375 C 2.691406 -2.578125 2.226562 -3.445312 1.90625 -4.46875 C 1.59375 -5.5 1.4375 -6.644531 1.4375 -7.90625 C 1.4375 -9.175781 1.59375 -10.320312 1.90625 -11.34375 C 2.226562 -12.363281 2.691406 -13.226562 3.296875 -13.9375 C 3.898438 -14.65625 4.640625 -15.207031 5.515625 -15.59375 C 6.398438 -15.988281 7.390625 -16.1875 8.484375 -16.1875 C 10.066406 -16.1875 11.332031 -15.84375 12.28125 -15.15625 C 13.226562 -14.46875 13.9375 -13.578125 14.40625 -12.484375 L 12.359375 -11.4375 C 12.066406 -12.25 11.59375 -12.878906 10.9375 -13.328125 C 10.289062 -13.785156 9.472656 -14.015625 8.484375 -14.015625 C 7.753906 -14.015625 7.113281 -13.894531 6.5625 -13.65625 C 6.007812 -13.425781 5.546875 -13.097656 5.171875 -12.671875 C 4.804688 -12.253906 4.53125 -11.753906 4.34375 -11.171875 C 4.164062 -10.585938 4.078125 -9.953125 4.078125 -9.265625 L 4.078125 -6.5625 C 4.078125 -5.164062 4.445312 -4.023438 5.1875 -3.140625 C 5.9375 -2.253906 7.035156 -1.8125 8.484375 -1.8125 C 10.472656 -1.8125 11.90625 -2.726562 12.78125 -4.5625 L 14.5625 -3.375 C 14.050781 -2.226562 13.289062 -1.316406 12.28125 -0.640625 C 11.269531 0.0351562 10.003906 0.375 8.484375 0.375 Z M 8.484375 0.375 "/></g></g></g><g fill="#008080" fill-opacity="1"><g transform="translate(34.278888, 30.000305)"><g><path d="M 8.578125 0.375 C 7.515625 0.375 6.546875 0.179688 5.671875 -0.203125 C 4.796875 -0.597656 4.046875 -1.15625 3.421875 -1.875 C 2.796875 -2.601562 2.304688 -3.472656 1.953125 -4.484375 C 1.609375 -5.503906 1.4375 -6.644531 1.4375 -7.90625 C 1.4375 -9.15625 1.609375 -10.289062 1.953125 -11.3125 C 2.304688 -12.332031 2.796875 -13.203125 3.421875 -13.921875 C 4.046875 -14.648438 4.796875 -15.207031 5.671875 -15.59375 C 6.546875 -15.988281 7.515625 -16.1875 8.578125 -16.1875 C 9.640625 -16.1875 10.601562 -15.988281 11.46875 -15.59375 C 12.34375 -15.207031 13.097656 -14.648438 13.734375 -13.921875 C 14.367188 -13.203125 14.859375 -12.332031 15.203125 -11.3125 C 15.554688 -10.289062 15.734375 -9.15625 15.734375 -7.90625 C 15.734375 -6.644531 15.554688 -5.503906 15.203125 -4.484375 C 14.859375 -3.472656 14.367188 -2.601562 13.734375 -1.875 C 13.097656 -1.15625 12.34375 -0.597656 11.46875 -0.203125 C 10.601562 0.179688 9.640625 0.375 8.578125 0.375 Z M 8.578125 -1.8125 C 9.910156 -1.8125 10.992188 -2.21875 11.828125 -3.03125 C 12.671875 -3.851562 13.09375 -5.101562 13.09375 -6.78125 L 13.09375 -9.046875 C 13.09375 -10.722656 12.671875 -11.96875 11.828125 -12.78125 C 10.992188 -13.601562 9.910156 -14.015625 8.578125 -14.015625 C 7.253906 -14.015625 6.171875 -13.601562 5.328125 -12.78125 C 4.492188 -11.96875 4.078125 -10.722656 4.078125 -9.046875 L 4.078125 -6.78125 C 4.078125 -5.101562 4.492188 -3.851562 5.328125 -3.03125 C 6.171875 -2.21875 7.253906 -1.8125 8.578125 -1.8125 Z M 8.578125 -1.8125 "/></g></g></g><g fill="#2f4f4f" fill-opacity="1"><g transform="translate(51.447957, 30.000305)"><g><path d="M 7.015625 0 L 2.359375 0 L 2.359375 -21.390625 L 12.5 -21.390625 C 13.488281 -21.390625 14.378906 -21.226562 15.171875 -20.90625 C 15.972656 -20.582031 16.65625 -20.117188 17.21875 -19.515625 C 17.78125 -18.910156 18.210938 -18.1875 18.515625 -17.34375 C 18.816406 -16.507812 18.96875 -15.582031 18.96875 -14.5625 C 18.96875 -13.113281 18.644531 -11.847656 18 -10.765625 C 17.363281 -9.679688 16.390625 -8.894531 15.078125 -8.40625 L 19.28125 0 L 14.109375 0 L 10.359375 -7.84375 L 7.015625 -7.84375 Z M 11.921875 -11.765625 C 12.617188 -11.765625 13.164062 -11.941406 13.5625 -12.296875 C 13.957031 -12.660156 14.15625 -13.191406 14.15625 -13.890625 L 14.15625 -15.234375 C 14.15625 -15.929688 13.957031 -16.457031 13.5625 -16.8125 C 13.164062 -17.164062 12.617188 -17.34375 11.921875 -17.34375 L 7.015625 -17.34375 L 7.015625 -11.765625 Z M 11.921875 -11.765625 "/></g></g></g><g fill="#2f4f4f" fill-opacity="1"><g transform="translate(72.109874, 30.000305)"><g><path d="M 4.390625 -17.8125 C 3.460938 -17.8125 2.789062 -18.019531 2.375 -18.4375 C 1.957031 -18.851562 1.75 -19.390625 1.75 -20.046875 L 1.75 -20.71875 C 1.75 -21.375 1.957031 -21.910156 2.375 -22.328125 C 2.789062 -22.753906 3.460938 -22.96875 4.390625 -22.96875 C 5.304688 -22.96875 5.972656 -22.753906 6.390625 -22.328125 C 6.804688 -21.910156 7.015625 -21.375 7.015625 -20.71875 L 7.015625 -20.046875 C 7.015625 -19.390625 6.804688 -18.851562 6.390625 -18.4375 C 5.972656 -18.019531 5.304688 -17.8125 4.390625 -17.8125 Z M 2.109375 -16.09375 L 6.65625 -16.09375 L 6.65625 0 L 2.109375 0 Z M 2.109375 -16.09375 "/></g></g></g><g fill="#2f4f4f" fill-opacity="1"><g transform="translate(80.877392, 30.000305)"><g><path d="M 11.984375 -2.703125 L 11.828125 -2.703125 C 11.710938 -2.265625 11.519531 -1.859375 11.25 -1.484375 C 10.988281 -1.109375 10.664062 -0.78125 10.28125 -0.5 C 9.90625 -0.226562 9.476562 -0.015625 9 0.140625 C 8.519531 0.296875 8.023438 0.375 7.515625 0.375 C 5.460938 0.375 3.914062 -0.34375 2.875 -1.78125 C 1.832031 -3.226562 1.3125 -5.320312 1.3125 -8.0625 C 1.3125 -10.800781 1.832031 -12.882812 2.875 -14.3125 C 3.914062 -15.75 5.460938 -16.46875 7.515625 -16.46875 C 8.554688 -16.46875 9.476562 -16.179688 10.28125 -15.609375 C 11.09375 -15.035156 11.609375 -14.296875 11.828125 -13.390625 L 11.984375 -13.390625 L 11.984375 -22.6875 L 16.53125 -22.6875 L 16.53125 0 L 11.984375 0 Z M 9.015625 -3.3125 C 9.867188 -3.3125 10.578125 -3.519531 11.140625 -3.9375 C 11.703125 -4.351562 11.984375 -4.929688 11.984375 -5.671875 L 11.984375 -10.421875 C 11.984375 -11.160156 11.703125 -11.738281 11.140625 -12.15625 C 10.578125 -12.570312 9.867188 -12.78125 9.015625 -12.78125 C 8.148438 -12.78125 7.4375 -12.476562 6.875 -11.875 C 6.320312 -11.269531 6.046875 -10.457031 6.046875 -9.4375 L 6.046875 -6.65625 C 6.046875 -5.632812 6.320312 -4.820312 6.875 -4.21875 C 7.4375 -3.613281 8.148438 -3.3125 9.015625 -3.3125 Z M 9.015625 -3.3125 "/></g></g></g><g fill="#2f4f4f" fill-opacity="1"><g transform="translate(99.516034, 30.000305)"><g><path d="M 8.828125 0.375 C 7.597656 0.375 6.503906 0.175781 5.546875 -0.21875 C 4.585938 -0.625 3.773438 -1.1875 3.109375 -1.90625 C 2.441406 -2.632812 1.941406 -3.519531 1.609375 -4.5625 C 1.273438 -5.601562 1.109375 -6.769531 1.109375 -8.0625 C 1.109375 -9.332031 1.269531 -10.484375 1.59375 -11.515625 C 1.914062 -12.546875 2.398438 -13.425781 3.046875 -14.15625 C 3.691406 -14.894531 4.484375 -15.460938 5.421875 -15.859375 C 6.367188 -16.265625 7.441406 -16.46875 8.640625 -16.46875 C 9.972656 -16.46875 11.113281 -16.238281 12.0625 -15.78125 C 13.007812 -15.332031 13.785156 -14.726562 14.390625 -13.96875 C 14.992188 -13.21875 15.429688 -12.347656 15.703125 -11.359375 C 15.984375 -10.367188 16.125 -9.332031 16.125 -8.25 L 16.125 -6.890625 L 5.796875 -6.890625 L 5.796875 -6.65625 C 5.796875 -5.59375 6.082031 -4.75 6.65625 -4.125 C 7.226562 -3.5 8.125 -3.1875 9.34375 -3.1875 C 10.289062 -3.1875 11.054688 -3.375 11.640625 -3.75 C 12.234375 -4.132812 12.789062 -4.59375 13.3125 -5.125 L 15.578125 -2.296875 C 14.859375 -1.460938 13.921875 -0.804688 12.765625 -0.328125 C 11.609375 0.140625 10.296875 0.375 8.828125 0.375 Z M 8.734375 -13.125 C 7.816406 -13.125 7.097656 -12.820312 6.578125 -12.21875 C 6.054688 -11.613281 5.796875 -10.8125 5.796875 -9.8125 L 5.796875 -9.5625 L 11.4375 -9.5625 L 11.4375 -9.84375 C 11.4375 -10.820312 11.210938 -11.613281 10.765625 -12.21875 C 10.328125 -12.820312 9.648438 -13.125 8.734375 -13.125 Z M 8.734375 -13.125 "/></g></g></g></svg>