<svg xmlns="http://www.w3.org/2000/svg" xmlns:xlink="http://www.w3.org/1999/xlink" width="1920" zoomAndPan="magnify" viewBox="0 0 1440 809.999993" height="1080" preserveAspectRatio="xMidYMid meet" version="1.0"><defs><g/><clipPath id="369c594629"><path d="M 967.863281 305.390625 L 1125 305.390625 L 1125 504.347656 L 967.863281 504.347656 Z M 967.863281 305.390625 " clip-rule="nonzero"/></clipPath></defs><rect x="-144" width="1728" fill="#ffffff" y="-80.999999" height="971.999992" fill-opacity="1"/><g clip-path="url(#369c594629)"><path fill="#008080" d="M 1046.429688 447.132812 C 1011.523438 447.132812 983.230469 418.839844 983.230469 383.933594 C 983.230469 349.039062 1011.523438 320.746094 1046.429688 320.746094 C 1081.324219 320.746094 1109.613281 349.039062 1109.613281 383.933594 C 1109.613281 418.839844 1081.324219 447.132812 1046.429688 447.132812 Z M 1046.429688 305.394531 C 1003.046875 305.394531 967.878906 340.554688 967.878906 383.933594 C 967.878906 453.53125 1046.429688 504.613281 1046.429688 504.613281 C 1046.429688 504.613281 1124.96875 453.53125 1124.96875 383.933594 C 1124.96875 340.554688 1089.796875 305.394531 1046.429688 305.394531 " fill-opacity="1" fill-rule="nonzero"/></g><path fill="#008080" d="M 1073.203125 395.273438 C 1070.582031 395.273438 1065.148438 395.273438 1065.148438 390.863281 C 1065.148438 387.09375 1069.433594 382.796875 1073.203125 382.796875 C 1076.972656 382.796875 1080.046875 385.871094 1080.046875 389.640625 C 1080.046875 393.117188 1077.425781 395.273438 1073.203125 395.273438 Z M 1059.949219 400.6875 C 1059.949219 401.117188 1059.597656 401.476562 1059.15625 401.476562 L 1033.6875 401.476562 C 1033.253906 401.476562 1032.898438 401.117188 1032.898438 400.6875 L 1032.898438 394.421875 C 1032.898438 393.992188 1033.253906 393.644531 1033.6875 393.644531 L 1059.15625 393.644531 C 1059.597656 393.644531 1059.949219 393.992188 1059.949219 394.421875 Z M 1019.652344 395.273438 C 1015.429688 395.273438 1012.808594 393.117188 1012.808594 389.640625 C 1012.808594 385.871094 1015.871094 382.796875 1019.652344 382.796875 C 1023.410156 382.796875 1027.707031 387.09375 1027.707031 390.863281 C 1027.707031 395.273438 1022.261719 395.273438 1019.652344 395.273438 Z M 1025.03125 364.519531 C 1026.03125 362.128906 1029.074219 360.117188 1031.664062 360.117188 L 1061.191406 360.117188 C 1063.78125 360.117188 1066.8125 362.128906 1067.824219 364.519531 L 1071.898438 374.25 C 1065.453125 372.710938 1056.957031 371.929688 1046.425781 371.929688 C 1035.886719 371.929688 1027.402344 372.710938 1020.945312 374.25 Z M 1086.984375 386.96875 C 1086.984375 382.335938 1084.050781 378.777344 1078.214844 376.269531 L 1082.53125 375.839844 C 1082.976562 375.796875 1083.375 375.582031 1083.660156 375.246094 C 1083.945312 374.902344 1084.082031 374.46875 1084.039062 374.027344 L 1083.808594 371.625 C 1083.722656 370.730469 1082.953125 370.058594 1082.039062 370.121094 L 1072.960938 370.023438 L 1070.234375 363.507812 C 1068.8125 360.136719 1064.84375 357.496094 1061.191406 357.496094 L 1031.664062 357.496094 C 1028 357.496094 1024.03125 360.136719 1022.621094 363.507812 L 1019.882812 370.023438 L 1010.808594 370.121094 C 1009.890625 370.058594 1009.121094 370.730469 1009.039062 371.625 L 1008.816406 374.027344 C 1008.773438 374.46875 1008.902344 374.902344 1009.183594 375.246094 C 1009.46875 375.582031 1009.871094 375.796875 1010.3125 375.839844 L 1014.628906 376.269531 C 1008.796875 378.777344 1005.859375 382.335938 1005.859375 386.96875 L 1005.859375 387.765625 C 1005.847656 391.925781 1005.828125 396.214844 1009.183594 399.582031 C 1009.5625 399.960938 1009.996094 400.328125 1010.460938 400.675781 L 1010.460938 408.878906 C 1010.460938 410.214844 1011.554688 411.3125 1012.890625 411.3125 L 1023.992188 411.3125 C 1025.328125 411.3125 1026.410156 410.214844 1026.410156 408.878906 L 1026.410156 405.625 C 1031.8125 406.296875 1038.425781 406.617188 1046.425781 406.617188 C 1054.417969 406.617188 1061.042969 406.296875 1066.433594 405.625 L 1066.433594 408.878906 C 1066.433594 410.214844 1067.519531 411.3125 1068.855469 411.3125 L 1079.964844 411.3125 C 1081.300781 411.3125 1082.386719 410.214844 1082.386719 408.878906 L 1082.386719 400.675781 C 1082.847656 400.328125 1083.28125 399.960938 1083.660156 399.582031 C 1087.019531 396.214844 1087.007812 391.925781 1086.984375 387.765625 L 1086.984375 386.96875 " fill-opacity="1" fill-rule="nonzero"/><g fill="#008080" fill-opacity="1"><g transform="translate(314.99999, 467.911648)"><g><path d="M 15.59375 0 L 15.59375 -117.09375 L 87.0625 -117.09375 L 87.0625 -104.671875 L 29.6875 -104.671875 L 29.6875 -65.421875 L 83.703125 -65.421875 L 83.703125 -53.015625 L 29.6875 -53.015625 L 29.6875 -12.40625 L 87.0625 -12.40625 L 87.0625 0 Z M 15.59375 0 "/></g></g></g><g fill="#008080" fill-opacity="1"><g transform="translate(412.796917, 467.911648)"><g><path d="M 46.46875 2.015625 C 40.425781 2.015625 35 0.953125 30.1875 -1.171875 C 25.382812 -3.296875 21.332031 -6.316406 18.03125 -10.234375 C 14.726562 -14.148438 12.210938 -18.898438 10.484375 -24.484375 C 8.753906 -30.078125 7.890625 -36.34375 7.890625 -43.28125 C 7.890625 -50.21875 8.753906 -56.476562 10.484375 -62.0625 C 12.210938 -67.65625 14.726562 -72.410156 18.03125 -76.328125 C 21.332031 -80.242188 25.382812 -83.265625 30.1875 -85.390625 C 35 -87.515625 40.425781 -88.578125 46.46875 -88.578125 C 55.082031 -88.578125 61.988281 -86.703125 67.1875 -82.953125 C 72.382812 -79.203125 76.269531 -74.3125 78.84375 -68.28125 L 67.609375 -62.578125 C 66.035156 -67.046875 63.457031 -70.507812 59.875 -72.96875 C 56.300781 -75.425781 51.832031 -76.65625 46.46875 -76.65625 C 42.4375 -76.65625 38.910156 -76.007812 35.890625 -74.71875 C 32.878906 -73.4375 30.363281 -71.648438 28.34375 -69.359375 C 26.332031 -67.066406 24.820312 -64.328125 23.8125 -61.140625 C 22.8125 -57.953125 22.3125 -54.457031 22.3125 -50.65625 L 22.3125 -35.90625 C 22.3125 -28.289062 24.351562 -22.050781 28.4375 -17.1875 C 32.519531 -12.320312 38.53125 -9.890625 46.46875 -9.890625 C 57.3125 -9.890625 65.140625 -14.925781 69.953125 -25 L 79.6875 -18.453125 C 76.882812 -12.191406 72.710938 -7.210938 67.171875 -3.515625 C 61.640625 0.171875 54.738281 2.015625 46.46875 2.015625 Z M 46.46875 2.015625 "/></g></g></g><g fill="#008080" fill-opacity="1"><g transform="translate(497.174048, 467.911648)"><g><path d="M 46.96875 2.015625 C 41.15625 2.015625 35.84375 0.953125 31.03125 -1.171875 C 26.226562 -3.296875 22.117188 -6.34375 18.703125 -10.3125 C 15.296875 -14.28125 12.640625 -19.03125 10.734375 -24.5625 C 8.835938 -30.101562 7.890625 -36.34375 7.890625 -43.28125 C 7.890625 -50.101562 8.835938 -56.304688 10.734375 -61.890625 C 12.640625 -67.484375 15.296875 -72.265625 18.703125 -76.234375 C 22.117188 -80.210938 26.226562 -83.265625 31.03125 -85.390625 C 35.84375 -87.515625 41.15625 -88.578125 46.96875 -88.578125 C 52.78125 -88.578125 58.0625 -87.515625 62.8125 -85.390625 C 67.570312 -83.265625 71.6875 -80.210938 75.15625 -76.234375 C 78.625 -72.265625 81.304688 -67.484375 83.203125 -61.890625 C 85.109375 -56.304688 86.0625 -50.101562 86.0625 -43.28125 C 86.0625 -36.34375 85.109375 -30.101562 83.203125 -24.5625 C 81.304688 -19.03125 78.625 -14.28125 75.15625 -10.3125 C 71.6875 -6.34375 67.570312 -3.296875 62.8125 -1.171875 C 58.0625 0.953125 52.78125 2.015625 46.96875 2.015625 Z M 46.96875 -9.890625 C 54.238281 -9.890625 60.164062 -12.125 64.75 -16.59375 C 69.332031 -21.070312 71.625 -27.898438 71.625 -37.078125 L 71.625 -49.484375 C 71.625 -58.648438 69.332031 -65.46875 64.75 -69.9375 C 60.164062 -74.414062 54.238281 -76.65625 46.96875 -76.65625 C 39.695312 -76.65625 33.769531 -74.414062 29.1875 -69.9375 C 24.601562 -65.46875 22.3125 -58.648438 22.3125 -49.484375 L 22.3125 -37.078125 C 22.3125 -27.898438 24.601562 -21.070312 29.1875 -16.59375 C 33.769531 -12.125 39.695312 -9.890625 46.96875 -9.890625 Z M 46.96875 -9.890625 "/></g></g></g><g fill="#2f4f4f" fill-opacity="1"><g transform="translate(591.123188, 467.911648)"><g><path d="M 38.421875 0 L 12.921875 0 L 12.921875 -117.09375 L 68.4375 -117.09375 C 73.8125 -117.09375 78.675781 -116.195312 83.03125 -114.40625 C 87.394531 -112.613281 91.113281 -110.066406 94.1875 -106.765625 C 97.257812 -103.472656 99.632812 -99.53125 101.3125 -94.9375 C 103 -90.351562 103.84375 -85.269531 103.84375 -79.6875 C 103.84375 -71.738281 102.078125 -64.800781 98.546875 -58.875 C 95.023438 -52.945312 89.6875 -48.644531 82.53125 -45.96875 L 105.515625 0 L 77.171875 0 L 56.703125 -42.9375 L 38.421875 -42.9375 Z M 65.25 -64.421875 C 69.050781 -64.421875 72.039062 -65.394531 74.21875 -67.34375 C 76.40625 -69.300781 77.5 -72.179688 77.5 -75.984375 L 77.5 -83.375 C 77.5 -87.175781 76.40625 -90.054688 74.21875 -92.015625 C 72.039062 -93.972656 69.050781 -94.953125 65.25 -94.953125 L 38.421875 -94.953125 L 38.421875 -64.421875 Z M 65.25 -64.421875 "/></g></g></g><g fill="#2f4f4f" fill-opacity="1"><g transform="translate(704.185188, 467.911648)"><g><path d="M 23.984375 -97.46875 C 18.953125 -97.46875 15.289062 -98.613281 13 -100.90625 C 10.707031 -103.195312 9.5625 -106.128906 9.5625 -109.703125 L 9.5625 -113.40625 C 9.5625 -116.976562 10.707031 -119.910156 13 -122.203125 C 15.289062 -124.492188 18.953125 -125.640625 23.984375 -125.640625 C 29.015625 -125.640625 32.675781 -124.492188 34.96875 -122.203125 C 37.269531 -119.910156 38.421875 -116.976562 38.421875 -113.40625 L 38.421875 -109.703125 C 38.421875 -106.128906 37.269531 -103.195312 34.96875 -100.90625 C 32.675781 -98.613281 29.015625 -97.46875 23.984375 -97.46875 Z M 11.578125 -88.0625 L 36.40625 -88.0625 L 36.40625 0 L 11.578125 0 Z M 11.578125 -88.0625 "/></g></g></g><g fill="#2f4f4f" fill-opacity="1"><g transform="translate(752.161038, 467.911648)"><g><path d="M 65.59375 -14.765625 L 64.75 -14.765625 C 64.082031 -12.410156 63.019531 -10.195312 61.5625 -8.125 C 60.113281 -6.0625 58.351562 -4.273438 56.28125 -2.765625 C 54.207031 -1.253906 51.859375 -0.0820312 49.234375 0.75 C 46.609375 1.59375 43.894531 2.015625 41.09375 2.015625 C 29.914062 2.015625 21.472656 -1.925781 15.765625 -9.8125 C 10.066406 -17.695312 7.21875 -29.132812 7.21875 -44.125 C 7.21875 -59.101562 10.066406 -70.503906 15.765625 -78.328125 C 21.472656 -86.160156 29.914062 -90.078125 41.09375 -90.078125 C 46.800781 -90.078125 51.863281 -88.507812 56.28125 -85.375 C 60.695312 -82.25 63.519531 -78.226562 64.75 -73.3125 L 65.59375 -73.3125 L 65.59375 -124.140625 L 90.421875 -124.140625 L 90.421875 0 L 65.59375 0 Z M 49.3125 -18.109375 C 54.007812 -18.109375 57.894531 -19.253906 60.96875 -21.546875 C 64.050781 -23.847656 65.59375 -27.007812 65.59375 -31.03125 L 65.59375 -57.03125 C 65.59375 -61.0625 64.050781 -64.222656 60.96875 -66.515625 C 57.894531 -68.804688 54.007812 -69.953125 49.3125 -69.953125 C 44.613281 -69.953125 40.726562 -68.300781 37.65625 -65 C 34.582031 -61.695312 33.046875 -57.253906 33.046875 -51.671875 L 33.046875 -36.40625 C 33.046875 -30.8125 34.582031 -26.363281 37.65625 -23.0625 C 40.726562 -19.757812 44.613281 -18.109375 49.3125 -18.109375 Z M 49.3125 -18.109375 "/></g></g></g><g fill="#2f4f4f" fill-opacity="1"><g transform="translate(854.151678, 467.911648)"><g><path d="M 48.3125 2.015625 C 41.601562 2.015625 35.617188 0.925781 30.359375 -1.25 C 25.109375 -3.4375 20.664062 -6.515625 17.03125 -10.484375 C 13.394531 -14.453125 10.648438 -19.285156 8.796875 -24.984375 C 6.953125 -30.691406 6.03125 -37.070312 6.03125 -44.125 C 6.03125 -51.050781 6.925781 -57.335938 8.71875 -62.984375 C 10.507812 -68.640625 13.164062 -73.476562 16.6875 -77.5 C 20.207031 -81.53125 24.539062 -84.632812 29.6875 -86.8125 C 34.832031 -88.988281 40.707031 -90.078125 47.3125 -90.078125 C 54.570312 -90.078125 60.800781 -88.847656 66 -86.390625 C 71.207031 -83.929688 75.457031 -80.628906 78.75 -76.484375 C 82.050781 -72.347656 84.457031 -67.566406 85.96875 -62.140625 C 87.476562 -56.722656 88.234375 -51.050781 88.234375 -45.125 L 88.234375 -37.75 L 31.703125 -37.75 L 31.703125 -36.40625 C 31.703125 -30.582031 33.265625 -25.96875 36.390625 -22.5625 C 39.523438 -19.15625 44.445312 -17.453125 51.15625 -17.453125 C 56.300781 -17.453125 60.492188 -18.484375 63.734375 -20.546875 C 66.984375 -22.617188 70.003906 -25.109375 72.796875 -28.015625 L 85.21875 -12.578125 C 81.300781 -7.992188 76.179688 -4.414062 69.859375 -1.84375 C 63.546875 0.726562 56.363281 2.015625 48.3125 2.015625 Z M 47.8125 -71.796875 C 42.78125 -71.796875 38.835938 -70.144531 35.984375 -66.84375 C 33.128906 -63.550781 31.703125 -59.164062 31.703125 -53.6875 L 31.703125 -52.34375 L 62.578125 -52.34375 L 62.578125 -53.84375 C 62.578125 -59.21875 61.375 -63.550781 58.96875 -66.84375 C 56.5625 -70.144531 52.84375 -71.796875 47.8125 -71.796875 Z M 47.8125 -71.796875 "/></g></g></g></svg>